<?xml version="1.0" encoding="utf-8"?>
<!-- Generator: Adobe Illustrator 21.0.0, SVG Export Plug-In . SVG Version: 6.00 Build 0)  -->
<svg version="1.1" id="Layer_1" xmlns="http://www.w3.org/2000/svg" xmlns:xlink="http://www.w3.org/1999/xlink" x="0px" y="0px"
	 width="691px" height="269px" viewBox="0 0 691 269" style="enable-background:new 0 0 691 269;" xml:space="preserve">
<style type="text/css">
	.st0{fill:#2F85BE;}
	.st1{fill:#0101FF;}
</style>
<path class="st0" d="M187.3,140.4v0.7C187.3,140.9,187.3,140.6,187.3,140.4L187.3,140.4z"/>
<g>
	<path class="st1" d="M118.2,243.3L66,73h-1.3c1.9,34.6,2.8,57.8,2.8,69.3v101H26.3v-217H89l51.4,166h0.9l54.5-166h62.7v217h-42.9
		V140.6c0-4.8,0.1-10.4,0.2-16.8c0.1-6.3,0.8-23.2,2-50.5h-1.3l-56,170H118.2z"/>
	<path class="st1" d="M479.7,243.3h-46v-83.9c-15.2,5.1-27.9,8.7-38.1,10.5c-10.1,1.9-19.8,2.8-29,2.8c-20.7,0-36.6-5-47.9-14.9
		c-11.2-9.9-16.8-23.9-16.8-41.9V26.3h45.9v76.6c0,10.5,2.4,18.4,7.3,23.7c4.8,5.3,13.1,7.9,24.6,7.9c8.1,0,16.2-0.8,24.3-2.4
		c8.1-1.6,18-4.5,29.8-8.5V26.3h46V243.3z"/>
	<path class="st1" d="M626.5,61.4c-17.3,0-30.7,6.5-40.2,19.5c-9.5,13-14.3,31.2-14.3,54.4c0,48.4,18.2,72.6,54.5,72.6
		c15.2,0,33.7-3.8,55.4-11.4v38.6c-17.8,7.4-37.7,11.1-59.7,11.1c-31.6,0-55.7-9.6-72.4-28.7c-16.7-19.2-25.1-46.6-25.1-82.5
		c0-22.6,4.1-42.3,12.3-59.3c8.2-17,20-30,35.4-39c15.4-9.1,33.4-13.6,54.1-13.6c21.1,0,42.3,5.1,63.5,15.3l-14.8,37.4
		c-8.1-3.9-16.3-7.2-24.5-10.1C642.5,62.9,634.5,61.4,626.5,61.4z"/>
</g>
</svg>
